<svg height="512" viewBox="0 0 512 512" width="512" xmlns="http://www.w3.org/2000/svg"><g id="b"><path d="m431.3 303.07c-2.75-3.25-4.23-7.4-4.19-11.71.33-14.53 0-37.77-.77-63.53 49.34-13.31 85.65-58.37 85.65-111.92.01-64.01-51.89-115.91-115.91-115.91-17.25 0-33.61 3.77-48.32 10.52-1.41-.43-2.82-.82-4.23-1.16-20.83-4.65-49.05-9.28-87.53-9.36-38.47.08-66.7 4.72-87.53 9.37-34.24 8.18-66.56 42.38-73.96 76.98-4.81 20.1-10.69 158.06-9.63 205.02.05 4.31-1.43 8.46-4.19 11.71-13.73 16.21-27.33 32.31-40.75 48.25-19.2 22.72-.98 58.88 29.44 59.91 62.21 1.9 124.41 2.86 186.62 2.86s124.41-.95 186.62-2.86c30.42-1.04 48.64-37.19 29.44-59.91-13.42-15.95-27.03-32.04-40.75-48.25zm42.7-187.15c0 42.96-34.96 77.92-77.93 77.92s-77.93-34.95-77.93-77.92 34.96-77.92 77.93-77.92 77.93 34.95 77.93 77.92zm-218 260.17c-61.33 0-123.52-.95-184.86-2.82 11.78-13.98 24.42-28.95 38.55-45.64 8.65-10.21 13.33-23.24 13.19-36.69 0-.15 0-.3 0-.44-1.11-49.07 5.11-178.25 8.63-195.48.06-.24.11-.49.16-.73 2.11-9.88 8.39-20.85 17.23-30.09 8.66-9.06 18.92-15.55 28.18-17.83 16.11-3.58 41.74-8.3 78.96-8.38 20.5.05 37.46 1.5 51.26 3.39-16.94 20.15-27.14 46.15-27.14 74.53 0 61.46 47.84 111.75 108.32 115.66.68 23.29.98 44.54.66 58.92v.44c-.15 13.45 4.53 26.48 13.18 36.69 14.09 16.64 26.73 31.6 38.56 45.64-61.34 1.87-123.53 2.82-184.86 2.82z"/><path d="m318.01 454.21c-2.65-11.96-12.96-21.95-25.08-24.3-5.91-1.12-32.83-1.53-36.72-1.55h-.21c-.1 0-.17 0-.21 0-3.89.03-30.81.43-36.72 1.55-12.12 2.35-22.43 12.34-25.08 24.3-.02.08-.04.16-.05.25-1.04 5.01-1.55 10.14-1.56 15.74 0 5.53.52 10.66 1.56 15.67.02.08.04.16.05.25 2.65 11.96 12.96 21.95 25.07 24.3 5.92 1.12 32.83 1.53 36.72 1.55h.42c3.89-.03 30.8-.43 36.72-1.55 12.12-2.35 22.43-12.34 25.08-24.3.02-.08.04-.16.05-.25 1.04-5.01 1.55-10.14 1.56-15.74 0-5.53-.52-10.66-1.56-15.67-.02-.08-.04-.16-.05-.25zm-36.49 19.07c-7.75.35-21.39.74-25.3.69-.07 0-.14 0-.21 0s-.14 0-.21 0c-3.93.05-17.56-.34-25.3-.69-.06-.92-.1-1.94-.11-3.08 0-1.17.04-2.21.11-3.15 7.75-.35 21.38-.73 25.3-.69h.42c3.91-.03 17.56.34 25.3.69.06.92.1 1.94.11 3.08 0 1.17-.04 2.21-.11 3.15z"/><path d="m385.88 175.1c2.42.4 5.71.78 10.2.78s7.78-.38 10.2-.78c3.98-.7 7.6-4.32 8.31-8.31.4-2.42.78-5.71.78-10.2s-.38-7.78-.78-10.2c-.7-3.98-4.32-7.6-8.31-8.31-2.42-.4-5.71-.78-10.2-.78s-7.78.38-10.2.78c-3.98.7-7.6 4.32-8.31 8.31-.4 2.42-.78 5.71-.78 10.2s.38 7.78.78 10.2c.7 3.98 4.32 7.6 8.31 8.31z"/><path d="m396.08 125.47c10.49 0 19-8.51 19-19v-31.7c0-10.49-8.51-19-19-19s-19 8.51-19 19v31.7c0 10.49 8.51 19 19 19z"/></g></svg>